<?xml version="1.0" standalone="no"?>
<!DOCTYPE svg PUBLIC "-//W3C//DTD SVG 20010904//EN"
 "http://www.w3.org/TR/2001/REC-SVG-20010904/DTD/svg10.dtd">
<svg version="1.0" xmlns="http://www.w3.org/2000/svg"
 width="256.000000pt" height="256.000000pt" viewBox="0 0 256.000000 256.000000"
 preserveAspectRatio="xMidYMid meet">

<g transform="translate(0.000000,256.000000) scale(0.100000,-0.100000)"
fill="#000000" stroke="none">
<path d="M0 1280 l0 -1280 1280 0 1280 0 0 1280 0 1280 -1280 0 -1280 0 0
-1280z m1557 600 l29 -55 90 0 89 0 31 59 c33 62 36 61 59 -4 13 -37 13 -45 0
-70 -8 -16 -15 -39 -15 -50 0 -17 4 -20 20 -15 15 5 20 2 20 -12 -1 -29 -22
-59 -68 -98 -33 -29 -42 -43 -42 -69 0 -20 -8 -40 -20 -51 -19 -18 -20 -17
-20 6 -1 24 -1 24 -16 -3 -9 -18 -23 -28 -38 -28 -15 0 -27 9 -36 28 -14 27
-14 27 -18 4 -3 -23 -4 -23 -23 -6 -11 10 -19 31 -19 48 -1 36 -13 55 -54 81
-44 29 -75 112 -37 100 25 -8 32 15 15 46 -7 13 -13 36 -14 50 0 27 28 105 35
97 2 -2 17 -28 32 -58z"/>
<path d="M1564 1676 c4 -17 19 -40 32 -53 29 -27 30 -27 37 -9 3 8 -12 30 -35
52 l-41 39 7 -29z"/>
<path d="M1747 1662 c-29 -30 -34 -41 -25 -50 9 -9 18 -5 40 19 15 16 28 39
28 50 0 10 -1 19 -3 19 -2 0 -20 -17 -40 -38z"/>
</g>
</svg>
